G04 Layer: BottomLayer*
G04 EasyEDA Pro v2.2.39.2, 2025-06-07 21:32:46*
G04 Gerber Generator version 0.3*
G04 Scale: 100 percent, Rotated: No, Reflected: No*
G04 Dimensions in millimeters*
G04 Leading zeros omitted, absolute positions, 4 integers and 5 decimals*
G04 Generated by one-click*
%FSLAX45Y45*%
%MOMM*%
%ADD10C,0.2032*%
%ADD11C,0.254*%
%ADD12R,1.99898X1.99898*%
%ADD13C,1.99898*%
%ADD14C,0.61*%
%ADD15C,0.7391*%
G75*


G04 Copper Start*
G36*
G01X1692553Y0D02*
G01X1690636Y-80535D01*
G01X1684889Y-160887D01*
G01X1675325Y-240875D01*
G01X1661966Y-320318D01*
G01X1644842Y-399034D01*
G01X1623993Y-476847D01*
G01X1599464Y-553580D01*
G01X1571312Y-629058D01*
G01X1539600Y-703112D01*
G01X1504401Y-775573D01*
G01X1465794Y-846276D01*
G01X1423866Y-915063D01*
G01X1378713Y-981777D01*
G01X1330436Y-1046267D01*
G01X1279146Y-1108386D01*
G01X1224958Y-1167995D01*
G01X1167995Y-1224958D01*
G01X1108386Y-1279146D01*
G01X1046267Y-1330436D01*
G01X981777Y-1378713D01*
G01X915063Y-1423866D01*
G01X846276Y-1465794D01*
G01X775573Y-1504401D01*
G01X703112Y-1539600D01*
G01X629058Y-1571312D01*
G01X553580Y-1599464D01*
G01X476847Y-1623993D01*
G01X399034Y-1644842D01*
G01X320318Y-1661966D01*
G01X240875Y-1675325D01*
G01X160887Y-1684889D01*
G01X80535Y-1690636D01*
G01X0Y-1692553D01*
G01X-80535Y-1690636D01*
G01X-160887Y-1684889D01*
G01X-240875Y-1675325D01*
G01X-320318Y-1661966D01*
G01X-399034Y-1644842D01*
G01X-476847Y-1623993D01*
G01X-553580Y-1599464D01*
G01X-629058Y-1571312D01*
G01X-703112Y-1539600D01*
G01X-775573Y-1504401D01*
G01X-846276Y-1465794D01*
G01X-915063Y-1423866D01*
G01X-981777Y-1378713D01*
G01X-1046267Y-1330436D01*
G01X-1108386Y-1279146D01*
G01X-1167995Y-1224958D01*
G01X-1224958Y-1167995D01*
G01X-1279146Y-1108386D01*
G01X-1330436Y-1046267D01*
G01X-1378713Y-981777D01*
G01X-1423866Y-915063D01*
G01X-1465794Y-846276D01*
G01X-1504401Y-775573D01*
G01X-1539600Y-703112D01*
G01X-1571312Y-629058D01*
G01X-1599464Y-553580D01*
G01X-1623993Y-476847D01*
G01X-1644842Y-399034D01*
G01X-1646524Y-391306D01*
G01X-603089Y-391306D01*
G01X-601436Y-403863D01*
G01X-596590Y-415563D01*
G01X-588880Y-425611D01*
G01X-588880Y-425611D01*
G01X-409655Y-604836D01*
G01X-409655Y-604836D01*
G01X-399608Y-612545D01*
G01X-387907Y-617392D01*
G01X-375351Y-619045D01*
G01X-375351Y-619045D01*
G01X-99947Y-619045D01*
G01X-90110Y-626623D01*
G01X-79031Y-632235D01*
G01X-67101Y-635682D01*
G01X-54737Y-636845D01*
G01X-39981Y-635182D01*
G01X-25965Y-630278D01*
G01X-13391Y-622377D01*
G01X-2891Y-611877D01*
G01X5009Y-599304D01*
G01X9914Y-585287D01*
G01X11577Y-570531D01*
G01X10528Y-558786D01*
G01X7416Y-547412D01*
G01X2339Y-536770D01*
G01X284016Y-818447D01*
G01X284016Y-818447D01*
G01X294064Y-826157D01*
G01X305765Y-831003D01*
G01X318321Y-832656D01*
G01X318321Y-832656D01*
G01X1314791Y-832656D01*
G01X1324629Y-840235D01*
G01X1335707Y-845846D01*
G01X1347638Y-849294D01*
G01X1360001Y-850456D01*
G01X1360001Y-850456D01*
G01X1374758Y-848794D01*
G01X1388774Y-843889D01*
G01X1401348Y-835989D01*
G01X1411848Y-825489D01*
G01X1419748Y-812915D01*
G01X1424653Y-798899D01*
G01X1426315Y-784142D01*
G01X1424653Y-769386D01*
G01X1419748Y-755370D01*
G01X1411848Y-742796D01*
G01X1401348Y-732296D01*
G01X1388774Y-724395D01*
G01X1374758Y-719491D01*
G01X1360001Y-717828D01*
G01X1347638Y-718991D01*
G01X1335707Y-722439D01*
G01X1324629Y-728050D01*
G01X1314791Y-735628D01*
G01X338416Y-735628D01*
G01X100Y-397312D01*
G01X-1997Y-382946D01*
G01X-7169Y-369381D01*
G01X-15170Y-357267D01*
G01X-25615Y-347183D01*
G01X-38004Y-339615D01*
G01X-51743Y-334923D01*
G01X-66173Y-333334D01*
G01X-80929Y-334997D01*
G01X-94946Y-339901D01*
G01X-107519Y-347802D01*
G01X-118020Y-358302D01*
G01X-125920Y-370876D01*
G01X-130825Y-384892D01*
G01X-132487Y-399648D01*
G01X-130898Y-414079D01*
G01X-126207Y-427818D01*
G01X-118638Y-440207D01*
G01X-108555Y-450652D01*
G01X-96440Y-458652D01*
G01X-82875Y-463825D01*
G01X-68509Y-465921D01*
G01X-20976Y-513454D01*
G01X-31619Y-508377D01*
G01X-42992Y-505265D01*
G01X-54737Y-504217D01*
G01X-67101Y-505380D01*
G01X-79031Y-508827D01*
G01X-90110Y-514439D01*
G01X-99947Y-522017D01*
G01X-355256Y-522017D01*
G01X-485966Y-391306D01*
G01X-355256Y-260596D01*
G01X820580Y-260596D01*
G01X1223414Y-663430D01*
G01X1225511Y-677795D01*
G01X1230683Y-691361D01*
G01X1238684Y-703475D01*
G01X1249129Y-713558D01*
G01X1261517Y-721127D01*
G01X1275256Y-725818D01*
G01X1289687Y-727408D01*
G01X1304443Y-725745D01*
G01X1318460Y-720840D01*
G01X1331033Y-712940D01*
G01X1341534Y-702440D01*
G01X1349434Y-689866D01*
G01X1354339Y-675850D01*
G01X1356001Y-661094D01*
G01X1354412Y-646663D01*
G01X1349721Y-632924D01*
G01X1342152Y-620535D01*
G01X1332069Y-610090D01*
G01X1319954Y-602090D01*
G01X1306389Y-596917D01*
G01X1292023Y-594821D01*
G01X874980Y-177777D01*
G01X874980Y-177777D01*
G01X864933Y-170068D01*
G01X853232Y-165221D01*
G01X840676Y-163568D01*
G01X840676Y-163568D01*
G01X456744Y-163568D01*
G01X1183921Y563609D01*
G01X1198286Y565706D01*
G01X1211852Y570878D01*
G01X1223966Y578879D01*
G01X1234049Y589323D01*
G01X1241618Y601712D01*
G01X1246309Y615451D01*
G01X1247898Y629882D01*
G01X1246236Y644638D01*
G01X1241331Y658655D01*
G01X1233431Y671228D01*
G01X1222931Y681728D01*
G01X1210357Y689629D01*
G01X1196341Y694533D01*
G01X1181584Y696196D01*
G01X1167154Y694607D01*
G01X1153415Y689916D01*
G01X1141026Y682347D01*
G01X1130581Y672264D01*
G01X1122581Y660149D01*
G01X1117408Y646584D01*
G01X1115311Y632218D01*
G01X385466Y-97627D01*
G01X82041Y-97627D01*
G01X72203Y-90049D01*
G01X61125Y-84437D01*
G01X49195Y-80990D01*
G01X36831Y-79827D01*
G01X22075Y-81490D01*
G01X8059Y-86394D01*
G01X-4515Y-94295D01*
G01X-15015Y-104795D01*
G01X-22916Y-117369D01*
G01X-27820Y-131385D01*
G01X-29483Y-146141D01*
G01X-28898Y-154932D01*
G01X-27152Y-163568D01*
G01X-375351Y-163568D01*
G01X-375351Y-163568D01*
G01X-387907Y-165221D01*
G01X-399608Y-170068D01*
G01X-409655Y-177777D01*
G01X-409655Y-177777D01*
G01X-588880Y-357002D01*
G01X-588880Y-357002D01*
G01X-596590Y-367049D01*
G01X-601436Y-378750D01*
G01X-603089Y-391306D01*
G01X-1646524Y-391306D01*
G01X-1661966Y-320318D01*
G01X-1675325Y-240875D01*
G01X-1681730Y-187311D01*
G01X-1248350Y-187311D01*
G01X-1246688Y-202067D01*
G01X-1241783Y-216084D01*
G01X-1233883Y-228657D01*
G01X-1223382Y-239158D01*
G01X-1210809Y-247058D01*
G01X-1196792Y-251963D01*
G01X-1182036Y-253625D01*
G01X-1169672Y-252463D01*
G01X-1157742Y-249015D01*
G01X-1146664Y-243404D01*
G01X-1136826Y-235825D01*
G01X-685750Y-235825D01*
G01X-685750Y-235825D01*
G01X-673194Y-234172D01*
G01X-661493Y-229326D01*
G01X-651445Y-221616D01*
G01X-651445Y-221616D01*
G01X-649670Y-219841D01*
G01X-635305Y-217744D01*
G01X-621739Y-212572D01*
G01X-609625Y-204571D01*
G01X-599542Y-194126D01*
G01X-591973Y-181737D01*
G01X-587282Y-167998D01*
G01X-585693Y-153568D01*
G01X-587355Y-138811D01*
G01X-592260Y-124795D01*
G01X-600160Y-112222D01*
G01X-610660Y-101721D01*
G01X-623234Y-93821D01*
G01X-637250Y-88916D01*
G01X-652007Y-87254D01*
G01X-666760Y-88916D01*
G01X-680775Y-93819D01*
G01X-693347Y-101717D01*
G01X-703847Y-112214D01*
G01X-711748Y-124784D01*
G01X-716655Y-138797D01*
G01X-1136826Y-138797D01*
G01X-1146664Y-131219D01*
G01X-1157742Y-125607D01*
G01X-1169672Y-122160D01*
G01X-1182036Y-120997D01*
G01X-1196792Y-122660D01*
G01X-1210809Y-127564D01*
G01X-1223382Y-135465D01*
G01X-1233883Y-145965D01*
G01X-1241783Y-158539D01*
G01X-1246688Y-172555D01*
G01X-1248350Y-187311D01*
G01X-1248350Y-187311D01*
G01X-1681730Y-187311D01*
G01X-1684889Y-160887D01*
G01X-1690636Y-80535D01*
G01X-1692553Y0D01*
G01X-1692553Y0D01*
G01X-1690636Y80535D01*
G01X-1684889Y160887D01*
G01X-1675325Y240875D01*
G01X-1661966Y320318D01*
G01X-1644842Y399034D01*
G01X-1623993Y476847D01*
G01X-1599464Y553580D01*
G01X-1571312Y629058D01*
G01X-1539600Y703112D01*
G01X-1505627Y773049D01*
G01X-359903Y773049D01*
G01X-359903Y573151D01*
G01X-359903Y573151D01*
G01X-358150Y562084D01*
G01X-353063Y552100D01*
G01X-345140Y544177D01*
G01X-335156Y539090D01*
G01X-324089Y537337D01*
G01X-324089Y537337D01*
G01X-124191Y537337D01*
G01X-124191Y537337D01*
G01X-113124Y539090D01*
G01X-103140Y544177D01*
G01X-95217Y552100D01*
G01X-90130Y562084D01*
G01X-88377Y573151D01*
G01X-88377Y573151D01*
G01X-88377Y606380D01*
G01X-76994Y589352D01*
G01X-63180Y574231D01*
G01X-47248Y561359D01*
G01X-29561Y551031D01*
G01X-10521Y543482D01*
G01X9437Y538882D01*
G01X29860Y537337D01*
G01X29860Y537337D01*
G01X51098Y539008D01*
G01X71813Y543982D01*
G01X91495Y552134D01*
G01X109660Y563265D01*
G01X125859Y577101D01*
G01X139695Y593301D01*
G01X150826Y611465D01*
G01X158979Y631147D01*
G01X163952Y651862D01*
G01X165623Y673100D01*
G01X163952Y694338D01*
G01X158979Y715053D01*
G01X150826Y734735D01*
G01X139695Y752899D01*
G01X125859Y769099D01*
G01X109660Y782935D01*
G01X91495Y794066D01*
G01X71813Y802218D01*
G01X51098Y807192D01*
G01X29860Y808863D01*
G01X9437Y807318D01*
G01X-10521Y802718D01*
G01X-29561Y795169D01*
G01X-47248Y784841D01*
G01X-63180Y771969D01*
G01X-76994Y756848D01*
G01X-88377Y739820D01*
G01X-88377Y773049D01*
G01X-88377Y773049D01*
G01X-90130Y784116D01*
G01X-95217Y794100D01*
G01X-103140Y802023D01*
G01X-113124Y807110D01*
G01X-124191Y808863D01*
G01X-124191Y808863D01*
G01X-324089Y808863D01*
G01X-324089Y808863D01*
G01X-335156Y807110D01*
G01X-345140Y802023D01*
G01X-353063Y794100D01*
G01X-358150Y784116D01*
G01X-359903Y773049D01*
G01X-359903Y773049D01*
G01X-1505627Y773049D01*
G01X-1504401Y775573D01*
G01X-1465794Y846276D01*
G01X-1423866Y915063D01*
G01X-1378713Y981777D01*
G01X-1330436Y1046267D01*
G01X-1279146Y1108386D01*
G01X-1224958Y1167995D01*
G01X-1167995Y1224958D01*
G01X-1108386Y1279146D01*
G01X-1046267Y1330436D01*
G01X-981777Y1378713D01*
G01X-915063Y1423866D01*
G01X-846276Y1465794D01*
G01X-775573Y1504401D01*
G01X-703112Y1539600D01*
G01X-629058Y1571312D01*
G01X-553580Y1599464D01*
G01X-476847Y1623993D01*
G01X-399034Y1644842D01*
G01X-320318Y1661966D01*
G01X-240875Y1675325D01*
G01X-160887Y1684889D01*
G01X-80535Y1690636D01*
G01X0Y1692553D01*
G01X80535Y1690636D01*
G01X160887Y1684889D01*
G01X240875Y1675325D01*
G01X320318Y1661966D01*
G01X399034Y1644842D01*
G01X476847Y1623993D01*
G01X553580Y1599464D01*
G01X629058Y1571312D01*
G01X703112Y1539600D01*
G01X775573Y1504401D01*
G01X846276Y1465794D01*
G01X915063Y1423866D01*
G01X981777Y1378713D01*
G01X1046267Y1330436D01*
G01X1108386Y1279146D01*
G01X1167995Y1224958D01*
G01X1224958Y1167995D01*
G01X1279146Y1108386D01*
G01X1330436Y1046267D01*
G01X1378713Y981777D01*
G01X1423866Y915063D01*
G01X1465794Y846276D01*
G01X1504401Y775573D01*
G01X1539600Y703112D01*
G01X1571312Y629058D01*
G01X1599464Y553580D01*
G01X1623993Y476847D01*
G01X1644842Y399034D01*
G01X1661966Y320318D01*
G01X1675325Y240875D01*
G01X1684889Y160887D01*
G01X1690636Y80535D01*
G01X1692553Y0D01*
G37*
G54D10*
G01X1692553Y0D02*
G02X0Y-1692553I-1692553J0D01*
G02X-1692553Y0I0J1692553D01*
G02X0Y1692553I1692553J0D01*
G02X1692553Y0I0J-1692553D01*
G01X1360001Y-850456D02*
G03X1426315Y-784142I0J66314D01*
G03X1360001Y-717828I-66314J0D01*
G03X1314791Y-735628I0J-66314D01*
G01X338416Y-735628D01*
G01X100Y-397312D01*
G03X-66173Y-333334I-66273J-2336D01*
G03X-132487Y-399648I0J-66314D01*
G03X-68509Y-465921I66314J0D01*
G01X-20976Y-513454D01*
G03X-54737Y-504217I-33761J-57077D01*
G03X-99947Y-522017I0J-66314D01*
G01X-355256Y-522017D01*
G01X-485966Y-391306D01*
G01X-355256Y-260596D01*
G01X820580Y-260596D01*
G01X1223414Y-663430D01*
G03X1289687Y-727408I66273J2336D01*
G03X1356001Y-661094I0J66314D01*
G03X1292023Y-594821I-66314J0D01*
G01X874980Y-177777D01*
G01X874980Y-177777D01*
G03X840676Y-163568I-34305J-34305D01*
G01X840676Y-163568D01*
G01X456744Y-163568D01*
G01X1183921Y563609D01*
G03X1247898Y629882I-2336J66273D01*
G03X1181584Y696196I-66314J0D01*
G03X1115311Y632218I0J-66314D01*
G01X385466Y-97627D01*
G01X82041Y-97627D01*
G03X36831Y-79827I-45210J-48514D01*
G03X-29483Y-146141I0J-66314D01*
G03X-27152Y-163568I66314J0D01*
G01X-375351Y-163568D01*
G01X-375351Y-163568D01*
G03X-409655Y-177777I0J-48514D01*
G01X-409655Y-177777D01*
G01X-588880Y-357002D01*
G01X-588880Y-357002D01*
G03X-603089Y-391306I34305J-34305D01*
G03X-588880Y-425611I48514J0D01*
G01X-588880Y-425611D01*
G01X-409655Y-604836D01*
G01X-409655Y-604836D01*
G03X-375351Y-619045I34305J34305D01*
G01X-375351Y-619045D01*
G01X-99947Y-619045D01*
G03X-54737Y-636845I45210J48514D01*
G03X11577Y-570531I0J66314D01*
G03X2339Y-536770I-66314J0D01*
G01X284016Y-818447D01*
G01X284016Y-818447D01*
G03X318321Y-832656I34305J34305D01*
G01X318321Y-832656D01*
G01X1314791Y-832656D01*
G03X1360001Y-850456I45210J48514D01*
G01X29860Y537337D02*
G03X165623Y673100I0J135763D01*
G03X29860Y808863I-135763J0D01*
G03X-88377Y739820I0J-135763D01*
G01X-88377Y773049D01*
G01X-88377Y773049D01*
G03X-124191Y808863I-35814J0D01*
G01X-124191Y808863D01*
G01X-324089Y808863D01*
G01X-324089Y808863D01*
G03X-359903Y773049I0J-35814D01*
G01X-359903Y773049D01*
G01X-359903Y573151D01*
G01X-359903Y573151D01*
G03X-324089Y537337I35814J0D01*
G01X-324089Y537337D01*
G01X-124191Y537337D01*
G01X-124191Y537337D01*
G03X-88377Y573151I0J35814D01*
G01X-88377Y573151D01*
G01X-88377Y606380D01*
G03X29860Y537337I118237J66720D01*
G01X-1248350Y-187311D02*
G03X-1182036Y-253625I66314J0D01*
G03X-1136826Y-235825I0J66314D01*
G01X-685750Y-235825D01*
G01X-685750Y-235825D01*
G03X-651445Y-221616I0J48514D01*
G01X-651445Y-221616D01*
G01X-649670Y-219841D01*
G03X-585693Y-153568I-2336J66273D01*
G03X-652007Y-87254I-66314J0D01*
G03X-716655Y-138797I0J-66314D01*
G01X-1136826Y-138797D01*
G03X-1182036Y-120997I-45210J-48514D01*
G03X-1248350Y-187311I0J-66314D01*
G54D11*
G01X29860Y673100D02*
G01X155717Y673100D01*
G01X29860Y673100D02*
G01X29860Y798957D01*
G01X29860Y673100D02*
G01X29860Y547243D01*
G04 Copper End*

G04 Pad Start*
G54D12*
G01X-224140Y673100D03*
G54D13*
G01X29860Y673100D03*
G04 Pad End*

G04 Via Start*
G54D14*
G01X-652007Y-153568D03*
G01X-1182036Y-187311D03*
G01X-54738Y-570531D03*
G01X1289687Y-661093D03*
G01X-66173Y-399648D03*
G01X1360001Y-784142D03*
G01X36831Y-146141D03*
G01X1181584Y629882D03*
G04 Via End*

G04 Track Start*
G54D11*
G01X-652007Y-153568D02*
G01X-685750Y-187311D01*
G01X-1182036Y-187311D01*
G01X-54738Y-570531D02*
G01X-375351Y-570531D01*
G01X-554575Y-391307D01*
G01X-375351Y-212082D01*
G01X840675Y-212082D01*
G01X1289687Y-661093D01*
G01X-66173Y-399648D02*
G01X318321Y-784142D01*
G01X1360001Y-784142D01*
G01X36831Y-146141D02*
G01X405561Y-146141D01*
G01X1181584Y629882D01*
G04 Track End*

M02*

