G04 Layer: TopSolderMaskLayer*
G04 EasyEDA Pro v2.2.39.2, 2025-06-07 21:32:46*
G04 Gerber Generator version 0.3*
G04 Scale: 100 percent, Rotated: No, Reflected: No*
G04 Dimensions in millimeters*
G04 Leading zeros omitted, absolute positions, 4 integers and 5 decimals*
G04 Generated by one-click*
%FSLAX45Y45*%
%MOMM*%
%AMRoundRect*1,1,$1,$2,$3*1,1,$1,$4,$5*1,1,$1,0-$2,0-$3*1,1,$1,0-$4,0-$5*20,1,$1,$2,$3,$4,$5,0*20,1,$1,$4,$5,0-$2,0-$3,0*20,1,$1,0-$2,0-$3,0-$4,0-$5,0*20,1,$1,0-$4,0-$5,$2,$3,0*4,1,4,$2,$3,$4,$5,0-$2,0-$3,0-$4,0-$5,$2,$3,0*%
%ADD10O,2.1466X0.68961*%
%ADD11RoundRect,0.09691X-1.00183X1.00183X1.00183X1.00183*%
%ADD12C,2.10058*%
%ADD13RoundRect,0.09138X-0.43712X-0.40835X-0.43712X0.40835*%
%ADD14RoundRect,0.09138X-0.40835X0.43712X0.40835X0.43712*%
%ADD15RoundRect,0.09131X-0.40514X0.45514X0.40514X0.45514*%
%ADD16RoundRect,0.0926X-0.40519X-0.40519X-0.40519X0.40519*%
%ADD17RoundRect,0.09131X-0.40519X-0.40519X-0.40519X0.40519*%
G75*


G04 Pad Start*
G54D10*
G01X40259Y317500D03*
G01X40259Y190500D03*
G01X40259Y63500D03*
G01X40259Y-63500D03*
G01X594741Y317500D03*
G01X594741Y190500D03*
G01X594741Y63500D03*
G01X594741Y-63500D03*
G54D11*
G01X-224140Y673100D03*
G54D12*
G01X29860Y673100D03*
G54D13*
G01X926236Y315773D03*
G01X926236Y165100D03*
G01X926236Y-69255D03*
G01X926236Y-219928D03*
G54D14*
G01X60204Y-660400D03*
G01X210877Y-660400D03*
G54D15*
G01X210553Y-381000D03*
G01X70549Y-381000D03*
G01X615292Y-381000D03*
G01X475287Y-381000D03*
G54D10*
G01X-785241Y317500D03*
G01X-789559Y-571500D03*
G01X-789559Y-444500D03*
G01X-785241Y190500D03*
G01X-789559Y-317500D03*
G01X-785241Y63500D03*
G01X-785241Y-63500D03*
G01X-789559Y-190500D03*
G01X-230759Y-571031D03*
G01X-230759Y-444031D03*
G01X-230759Y-317031D03*
G01X-230759Y-190031D03*
G01X-226441Y63969D03*
G01X-226441Y-63031D03*
G01X-226441Y317969D03*
G01X-226441Y190969D03*
G54D17*
G01X-1248410Y825230D03*
G01X-1088390Y825738D03*
G01X-1502176Y-12954D03*
G01X-1342156Y-12446D03*
G01X451226Y-1369521D03*
G01X291206Y-1370029D03*
G01X1355090Y11651D03*
G01X1515110Y12159D03*
G01X-1212108Y-851154D03*
G01X-1052088Y-850646D03*
G01X-499110Y-1346454D03*
G01X-339090Y-1345946D03*
G01X1062990Y-826754D03*
G01X1223010Y-826246D03*
G01X1065022Y850646D03*
G01X1225042Y851154D03*
G01X352667Y1355805D03*
G01X512687Y1356313D03*
G01X-511414Y1345946D03*
G01X-351394Y1346454D03*
G04 Pad End*

M02*

