G04 Layer: TopSilkscreenLayer*
G04 EasyEDA Pro v2.2.39.2, 2025-06-07 21:32:46*
G04 Gerber Generator version 0.3*
G04 Scale: 100 percent, Rotated: No, Reflected: No*
G04 Dimensions in millimeters*
G04 Leading zeros omitted, absolute positions, 4 integers and 5 decimals*
G04 Generated by one-click*
%FSLAX45Y45*%
%MOMM*%
%ADD10C,0.1524*%
%ADD11C,0.254*%
%ADD12C,0.14986*%
%ADD13C,0.3*%
%ADD14C,0.4933*%
G75*


G04 Text Start*
G54D10*
G01X261620Y513334D02*
G01X261620Y466852D01*
G01X264668Y457708D01*
G01X271018Y451358D01*
G01X280162Y448310D01*
G01X286512Y448310D01*
G01X295656Y451358D01*
G01X301752Y457708D01*
G01X305054Y466852D01*
G01X305054Y513334D01*
G01X335280Y500888D02*
G01X341376Y504190D01*
G01X350520Y513334D01*
G01X350520Y448310D01*
G01X-390256Y932688D02*
G01X-390256Y867664D01*
G01X-390256Y932688D02*
G01X-362316Y932688D01*
G01X-353172Y929640D01*
G01X-350124Y926592D01*
G01X-346822Y920242D01*
G01X-346822Y911098D01*
G01X-350124Y905002D01*
G01X-353172Y901700D01*
G01X-362316Y898652D01*
G01X-390256Y898652D01*
G01X-316596Y920242D02*
G01X-310500Y923544D01*
G01X-301356Y932688D01*
G01X-301356Y867664D01*
G01X718820Y487934D02*
G01X718820Y422910D01*
G01X718820Y487934D02*
G01X746760Y487934D01*
G01X755904Y484886D01*
G01X758952Y481838D01*
G01X762254Y475488D01*
G01X762254Y469392D01*
G01X758952Y463296D01*
G01X755904Y460248D01*
G01X746760Y456946D01*
G01X718820Y456946D01*
G01X740410Y456946D02*
G01X762254Y422910D01*
G01X792480Y475488D02*
G01X798576Y478790D01*
G01X807720Y487934D01*
G01X807720Y422910D01*
G01X718820Y43434D02*
G01X718820Y-21590D01*
G01X718820Y43434D02*
G01X746760Y43434D01*
G01X755904Y40386D01*
G01X758952Y37338D01*
G01X762254Y30988D01*
G01X762254Y24892D01*
G01X758952Y18796D01*
G01X755904Y15748D01*
G01X746760Y12446D01*
G01X718820Y12446D01*
G01X740410Y12446D02*
G01X762254Y-21590D01*
G01X795528Y27940D02*
G01X795528Y30988D01*
G01X798576Y37338D01*
G01X801624Y40386D01*
G01X807720Y43434D01*
G01X820166Y43434D01*
G01X826516Y40386D01*
G01X829564Y37338D01*
G01X832612Y30988D01*
G01X832612Y24892D01*
G01X829564Y18796D01*
G01X823214Y9398D01*
G01X792480Y-21590D01*
G01X835660Y-21590D01*
G01X3461Y-489966D02*
G01X3461Y-554990D01*
G01X3461Y-489966D02*
G01X31401Y-489966D01*
G01X40545Y-493014D01*
G01X43593Y-496062D01*
G01X46895Y-502412D01*
G01X46895Y-508508D01*
G01X43593Y-514604D01*
G01X40545Y-517652D01*
G01X31401Y-520954D01*
G01X3461Y-520954D01*
G01X25051Y-520954D02*
G01X46895Y-554990D01*
G01X83217Y-489966D02*
G01X117253Y-489966D01*
G01X98711Y-514604D01*
G01X107855Y-514604D01*
G01X114205Y-517652D01*
G01X117253Y-520954D01*
G01X120301Y-530098D01*
G01X120301Y-536448D01*
G01X117253Y-545592D01*
G01X111157Y-551942D01*
G01X101759Y-554990D01*
G01X92361Y-554990D01*
G01X83217Y-551942D01*
G01X80169Y-548640D01*
G01X77121Y-542544D01*
G01X41402Y-205316D02*
G01X38354Y-198966D01*
G01X32004Y-192870D01*
G01X25908Y-189822D01*
G01X13462Y-189822D01*
G01X7366Y-192870D01*
G01X1016Y-198966D01*
G01X-2032Y-205316D01*
G01X-5080Y-214460D01*
G01X-5080Y-229954D01*
G01X-2032Y-239352D01*
G01X1016Y-245448D01*
G01X7366Y-251798D01*
G01X13462Y-254846D01*
G01X25908Y-254846D01*
G01X32004Y-251798D01*
G01X38354Y-245448D01*
G01X41402Y-239352D01*
G01X71628Y-202268D02*
G01X77724Y-198966D01*
G01X86868Y-189822D01*
G01X86868Y-254846D01*
G01X446141Y-205316D02*
G01X443093Y-198966D01*
G01X436743Y-192870D01*
G01X430647Y-189822D01*
G01X418201Y-189822D01*
G01X412105Y-192870D01*
G01X405755Y-198966D01*
G01X402707Y-205316D01*
G01X399659Y-214460D01*
G01X399659Y-229954D01*
G01X402707Y-239352D01*
G01X405755Y-245448D01*
G01X412105Y-251798D01*
G01X418201Y-254846D01*
G01X430647Y-254846D01*
G01X436743Y-251798D01*
G01X443093Y-245448D01*
G01X446141Y-239352D01*
G01X479415Y-205316D02*
G01X479415Y-202268D01*
G01X482463Y-195918D01*
G01X485511Y-192870D01*
G01X491607Y-189822D01*
G01X504053Y-189822D01*
G01X510403Y-192870D01*
G01X513451Y-195918D01*
G01X516499Y-202268D01*
G01X516499Y-208364D01*
G01X513451Y-214460D01*
G01X507101Y-223858D01*
G01X476367Y-254846D01*
G01X519547Y-254846D01*
G01X-614680Y500634D02*
G01X-614680Y454152D01*
G01X-611632Y445008D01*
G01X-605282Y438658D01*
G01X-596138Y435610D01*
G01X-589788Y435610D01*
G01X-580644Y438658D01*
G01X-574548Y445008D01*
G01X-571246Y454152D01*
G01X-571246Y500634D01*
G01X-537972Y485140D02*
G01X-537972Y488188D01*
G01X-534924Y494538D01*
G01X-531876Y497586D01*
G01X-525780Y500634D01*
G01X-513334Y500634D01*
G01X-506984Y497586D01*
G01X-503936Y494538D01*
G01X-500888Y488188D01*
G01X-500888Y482092D01*
G01X-503936Y475996D01*
G01X-510286Y466598D01*
G01X-541020Y435610D01*
G01X-497840Y435610D01*
G01X-1317117Y1015603D02*
G01X-1317117Y950579D01*
G01X-1317117Y950579D02*
G01X-1280033Y950579D01*
G01X-1249807Y1015603D02*
G01X-1249807Y950579D01*
G01X-1249807Y1015603D02*
G01X-1209675Y1015603D01*
G01X-1249807Y984615D02*
G01X-1225169Y984615D01*
G01X-1249807Y950579D02*
G01X-1209675Y950579D01*
G01X-1179449Y1015603D02*
G01X-1179449Y950579D01*
G01X-1179449Y1015603D02*
G01X-1157859Y1015603D01*
G01X-1148715Y1012555D01*
G01X-1142365Y1006459D01*
G01X-1139317Y1000109D01*
G01X-1136269Y990965D01*
G01X-1136269Y975471D01*
G01X-1139317Y966073D01*
G01X-1142365Y959977D01*
G01X-1148715Y953627D01*
G01X-1157859Y950579D01*
G01X-1179449Y950579D01*
G01X-1102995Y1000109D02*
G01X-1102995Y1003157D01*
G01X-1099947Y1009507D01*
G01X-1096899Y1012555D01*
G01X-1090803Y1015603D01*
G01X-1078357Y1015603D01*
G01X-1072007Y1012555D01*
G01X-1068959Y1009507D01*
G01X-1065911Y1003157D01*
G01X-1065911Y997061D01*
G01X-1068959Y990965D01*
G01X-1075309Y981567D01*
G01X-1106043Y950579D01*
G01X-1062863Y950579D01*
G01X-1570883Y177419D02*
G01X-1570883Y112395D01*
G01X-1570883Y112395D02*
G01X-1533799Y112395D01*
G01X-1503573Y177419D02*
G01X-1503573Y112395D01*
G01X-1503573Y177419D02*
G01X-1463441Y177419D01*
G01X-1503573Y146431D02*
G01X-1478935Y146431D01*
G01X-1503573Y112395D02*
G01X-1463441Y112395D01*
G01X-1433215Y177419D02*
G01X-1433215Y112395D01*
G01X-1433215Y177419D02*
G01X-1411625Y177419D01*
G01X-1402481Y174371D01*
G01X-1396131Y168275D01*
G01X-1393083Y161925D01*
G01X-1390035Y152781D01*
G01X-1390035Y137287D01*
G01X-1393083Y127889D01*
G01X-1396131Y121793D01*
G01X-1402481Y115443D01*
G01X-1411625Y112395D01*
G01X-1433215Y112395D01*
G01X-1353713Y177419D02*
G01X-1319677Y177419D01*
G01X-1338219Y152781D01*
G01X-1329075Y152781D01*
G01X-1322725Y149733D01*
G01X-1319677Y146431D01*
G01X-1316629Y137287D01*
G01X-1316629Y130937D01*
G01X-1319677Y121793D01*
G01X-1325773Y115443D01*
G01X-1335171Y112395D01*
G01X-1344569Y112395D01*
G01X-1353713Y115443D01*
G01X-1356761Y118745D01*
G01X-1359809Y124841D01*
G01X236220Y-1175766D02*
G01X236220Y-1240790D01*
G01X236220Y-1240790D02*
G01X273304Y-1240790D01*
G01X303530Y-1175766D02*
G01X303530Y-1240790D01*
G01X303530Y-1175766D02*
G01X343662Y-1175766D01*
G01X303530Y-1206754D02*
G01X328168Y-1206754D01*
G01X303530Y-1240790D02*
G01X343662Y-1240790D01*
G01X373888Y-1175766D02*
G01X373888Y-1240790D01*
G01X373888Y-1175766D02*
G01X395478Y-1175766D01*
G01X404622Y-1178814D01*
G01X410972Y-1184910D01*
G01X414020Y-1191260D01*
G01X417068Y-1200404D01*
G01X417068Y-1215898D01*
G01X414020Y-1225296D01*
G01X410972Y-1231392D01*
G01X404622Y-1237742D01*
G01X395478Y-1240790D01*
G01X373888Y-1240790D01*
G01X478028Y-1175766D02*
G01X447294Y-1218946D01*
G01X493522Y-1218946D01*
G01X478028Y-1175766D02*
G01X478028Y-1240790D01*
G01X1286383Y202024D02*
G01X1286383Y137000D01*
G01X1286383Y137000D02*
G01X1323467Y137000D01*
G01X1353693Y202024D02*
G01X1353693Y137000D01*
G01X1353693Y202024D02*
G01X1393825Y202024D01*
G01X1353693Y171036D02*
G01X1378331Y171036D01*
G01X1353693Y137000D02*
G01X1393825Y137000D01*
G01X1424051Y202024D02*
G01X1424051Y137000D01*
G01X1424051Y202024D02*
G01X1445641Y202024D01*
G01X1454785Y198976D01*
G01X1461135Y192880D01*
G01X1464183Y186530D01*
G01X1467231Y177386D01*
G01X1467231Y161892D01*
G01X1464183Y152494D01*
G01X1461135Y146398D01*
G01X1454785Y140048D01*
G01X1445641Y137000D01*
G01X1424051Y137000D01*
G01X1534541Y202024D02*
G01X1503553Y202024D01*
G01X1500505Y174338D01*
G01X1503553Y177386D01*
G01X1512697Y180434D01*
G01X1522095Y180434D01*
G01X1531493Y177386D01*
G01X1537589Y171036D01*
G01X1540637Y161892D01*
G01X1540637Y155542D01*
G01X1537589Y146398D01*
G01X1531493Y140048D01*
G01X1522095Y137000D01*
G01X1512697Y137000D01*
G01X1503553Y140048D01*
G01X1500505Y143350D01*
G01X1497457Y149446D01*
G01X-1280815Y-660781D02*
G01X-1280815Y-725805D01*
G01X-1280815Y-725805D02*
G01X-1243731Y-725805D01*
G01X-1213505Y-660781D02*
G01X-1213505Y-725805D01*
G01X-1213505Y-660781D02*
G01X-1173373Y-660781D01*
G01X-1213505Y-691769D02*
G01X-1188867Y-691769D01*
G01X-1213505Y-725805D02*
G01X-1173373Y-725805D01*
G01X-1143147Y-660781D02*
G01X-1143147Y-725805D01*
G01X-1143147Y-660781D02*
G01X-1121557Y-660781D01*
G01X-1112413Y-663829D01*
G01X-1106063Y-669925D01*
G01X-1103015Y-676275D01*
G01X-1099967Y-685419D01*
G01X-1099967Y-700913D01*
G01X-1103015Y-710311D01*
G01X-1106063Y-716407D01*
G01X-1112413Y-722757D01*
G01X-1121557Y-725805D01*
G01X-1143147Y-725805D01*
G01X-1026561Y-660781D02*
G01X-1057549Y-725805D01*
G01X-1069741Y-660781D02*
G01X-1026561Y-660781D01*
G01X-567817Y-1156081D02*
G01X-567817Y-1221105D01*
G01X-567817Y-1221105D02*
G01X-530733Y-1221105D01*
G01X-500507Y-1156081D02*
G01X-500507Y-1221105D01*
G01X-500507Y-1156081D02*
G01X-460375Y-1156081D01*
G01X-500507Y-1187069D02*
G01X-475869Y-1187069D01*
G01X-500507Y-1221105D02*
G01X-460375Y-1221105D01*
G01X-430149Y-1156081D02*
G01X-430149Y-1221105D01*
G01X-430149Y-1156081D02*
G01X-408559Y-1156081D01*
G01X-399415Y-1159129D01*
G01X-393065Y-1165225D01*
G01X-390017Y-1171575D01*
G01X-386969Y-1180719D01*
G01X-386969Y-1196213D01*
G01X-390017Y-1205611D01*
G01X-393065Y-1211707D01*
G01X-399415Y-1218057D01*
G01X-408559Y-1221105D01*
G01X-430149Y-1221105D01*
G01X-341503Y-1156081D02*
G01X-350647Y-1159129D01*
G01X-353695Y-1165225D01*
G01X-353695Y-1171575D01*
G01X-350647Y-1177671D01*
G01X-344551Y-1180719D01*
G01X-332105Y-1183767D01*
G01X-322707Y-1187069D01*
G01X-316611Y-1193165D01*
G01X-313563Y-1199261D01*
G01X-313563Y-1208659D01*
G01X-316611Y-1214755D01*
G01X-319659Y-1218057D01*
G01X-329057Y-1221105D01*
G01X-341503Y-1221105D01*
G01X-350647Y-1218057D01*
G01X-353695Y-1214755D01*
G01X-356743Y-1208659D01*
G01X-356743Y-1199261D01*
G01X-353695Y-1193165D01*
G01X-347599Y-1187069D01*
G01X-338201Y-1183767D01*
G01X-326009Y-1180719D01*
G01X-319659Y-1177671D01*
G01X-316611Y-1171575D01*
G01X-316611Y-1165225D01*
G01X-319659Y-1159129D01*
G01X-329057Y-1156081D01*
G01X-341503Y-1156081D01*
G01X994283Y-636381D02*
G01X994283Y-701405D01*
G01X994283Y-701405D02*
G01X1031367Y-701405D01*
G01X1061593Y-636381D02*
G01X1061593Y-701405D01*
G01X1061593Y-636381D02*
G01X1101725Y-636381D01*
G01X1061593Y-667369D02*
G01X1086231Y-667369D01*
G01X1061593Y-701405D02*
G01X1101725Y-701405D01*
G01X1131951Y-636381D02*
G01X1131951Y-701405D01*
G01X1131951Y-636381D02*
G01X1153541Y-636381D01*
G01X1162685Y-639429D01*
G01X1169035Y-645525D01*
G01X1172083Y-651875D01*
G01X1175131Y-661019D01*
G01X1175131Y-676513D01*
G01X1172083Y-685911D01*
G01X1169035Y-692007D01*
G01X1162685Y-698357D01*
G01X1153541Y-701405D01*
G01X1131951Y-701405D01*
G01X1245489Y-657971D02*
G01X1242441Y-667369D01*
G01X1236091Y-673465D01*
G01X1226947Y-676513D01*
G01X1223899Y-676513D01*
G01X1214501Y-673465D01*
G01X1208405Y-667369D01*
G01X1205357Y-657971D01*
G01X1205357Y-654923D01*
G01X1208405Y-645525D01*
G01X1214501Y-639429D01*
G01X1223899Y-636381D01*
G01X1226947Y-636381D01*
G01X1236091Y-639429D01*
G01X1242441Y-645525D01*
G01X1245489Y-657971D01*
G01X1245489Y-673465D01*
G01X1242441Y-688959D01*
G01X1236091Y-698357D01*
G01X1226947Y-701405D01*
G01X1220597Y-701405D01*
G01X1211453Y-698357D01*
G01X1208405Y-692007D01*
G01X996315Y1041019D02*
G01X996315Y975995D01*
G01X996315Y975995D02*
G01X1033399Y975995D01*
G01X1063625Y1041019D02*
G01X1063625Y975995D01*
G01X1063625Y1041019D02*
G01X1103757Y1041019D01*
G01X1063625Y1010031D02*
G01X1088263Y1010031D01*
G01X1063625Y975995D02*
G01X1103757Y975995D01*
G01X1133983Y1041019D02*
G01X1133983Y975995D01*
G01X1133983Y1041019D02*
G01X1155573Y1041019D01*
G01X1164717Y1037971D01*
G01X1171067Y1031875D01*
G01X1174115Y1025525D01*
G01X1177163Y1016381D01*
G01X1177163Y1000887D01*
G01X1174115Y991489D01*
G01X1171067Y985393D01*
G01X1164717Y979043D01*
G01X1155573Y975995D01*
G01X1133983Y975995D01*
G01X1207389Y1028573D02*
G01X1213485Y1031875D01*
G01X1222629Y1041019D01*
G01X1222629Y975995D01*
G01X1271397Y1041019D02*
G01X1261999Y1037971D01*
G01X1255903Y1028573D01*
G01X1252855Y1013333D01*
G01X1252855Y1003935D01*
G01X1255903Y988441D01*
G01X1261999Y979043D01*
G01X1271397Y975995D01*
G01X1277493Y975995D01*
G01X1286891Y979043D01*
G01X1292987Y988441D01*
G01X1296035Y1003935D01*
G01X1296035Y1013333D01*
G01X1292987Y1028573D01*
G01X1286891Y1037971D01*
G01X1277493Y1041019D01*
G01X1271397Y1041019D01*
G01X283960Y1546178D02*
G01X283960Y1481154D01*
G01X283960Y1481154D02*
G01X321044Y1481154D01*
G01X351270Y1546178D02*
G01X351270Y1481154D01*
G01X351270Y1546178D02*
G01X391402Y1546178D01*
G01X351270Y1515190D02*
G01X375908Y1515190D01*
G01X351270Y1481154D02*
G01X391402Y1481154D01*
G01X421628Y1546178D02*
G01X421628Y1481154D01*
G01X421628Y1546178D02*
G01X443218Y1546178D01*
G01X452362Y1543130D01*
G01X458712Y1537034D01*
G01X461760Y1530684D01*
G01X464808Y1521540D01*
G01X464808Y1506046D01*
G01X461760Y1496648D01*
G01X458712Y1490552D01*
G01X452362Y1484202D01*
G01X443218Y1481154D01*
G01X421628Y1481154D01*
G01X495034Y1533732D02*
G01X501130Y1537034D01*
G01X510274Y1546178D01*
G01X510274Y1481154D01*
G01X-580121Y1536319D02*
G01X-580121Y1471295D01*
G01X-580121Y1471295D02*
G01X-543037Y1471295D01*
G01X-512811Y1536319D02*
G01X-512811Y1471295D01*
G01X-512811Y1536319D02*
G01X-472679Y1536319D01*
G01X-512811Y1505331D02*
G01X-488173Y1505331D01*
G01X-512811Y1471295D02*
G01X-472679Y1471295D01*
G01X-442453Y1536319D02*
G01X-442453Y1471295D01*
G01X-442453Y1536319D02*
G01X-420863Y1536319D01*
G01X-411719Y1533271D01*
G01X-405369Y1527175D01*
G01X-402321Y1520825D01*
G01X-399273Y1511681D01*
G01X-399273Y1496187D01*
G01X-402321Y1486789D01*
G01X-405369Y1480693D01*
G01X-411719Y1474343D01*
G01X-420863Y1471295D01*
G01X-442453Y1471295D01*
G01X-331963Y1527175D02*
G01X-335011Y1533271D01*
G01X-344409Y1536319D01*
G01X-350505Y1536319D01*
G01X-359903Y1533271D01*
G01X-365999Y1523873D01*
G01X-369047Y1508633D01*
G01X-369047Y1493139D01*
G01X-365999Y1480693D01*
G01X-359903Y1474343D01*
G01X-350505Y1471295D01*
G01X-347457Y1471295D01*
G01X-338313Y1474343D01*
G01X-331963Y1480693D01*
G01X-328915Y1489837D01*
G01X-328915Y1493139D01*
G01X-331963Y1502283D01*
G01X-338313Y1508633D01*
G01X-347457Y1511681D01*
G01X-350505Y1511681D01*
G01X-359903Y1508633D01*
G01X-365999Y1502283D01*
G01X-369047Y1493139D01*
G04 Text End*

G04 PolygonModel Start*
G01X165359Y379621D02*
G01X469641Y379621D01*
G01X469641Y379621D02*
G01X469641Y-125621D01*
G01X469641Y-125621D02*
G01X165359Y-125621D01*
G01X165359Y-125621D02*
G01X165359Y379621D01*
G01X992297Y283058D02*
G01X992297Y378945D01*
G01X992297Y378945D02*
G01X860176Y378945D01*
G01X860176Y378945D02*
G01X860176Y283058D01*
G01X992297Y197815D02*
G01X992297Y101928D01*
G01X992297Y101928D02*
G01X860176Y101928D01*
G01X860176Y101928D02*
G01X860176Y197815D01*
G01X992297Y-101970D02*
G01X992297Y-6083D01*
G01X992297Y-6083D02*
G01X860176Y-6083D01*
G01X860176Y-6083D02*
G01X860176Y-101970D01*
G01X992297Y-187212D02*
G01X992297Y-283100D01*
G01X992297Y-283100D02*
G01X860176Y-283100D01*
G01X860176Y-283100D02*
G01X860176Y-187212D01*
G01X92920Y-594340D02*
G01X-2968Y-594340D01*
G01X-2968Y-594340D02*
G01X-2968Y-726460D01*
G01X-2968Y-726460D02*
G01X92920Y-726460D01*
G01X178162Y-594340D02*
G01X274049Y-594340D01*
G01X274049Y-594340D02*
G01X274049Y-726460D01*
G01X274049Y-726460D02*
G01X178162Y-726460D01*
G54D11*
G01X279552Y-341023D02*
G01X279552Y-421025D01*
G01X168577Y-310037D02*
G01X248575Y-310037D01*
G01X168577Y-452003D02*
G01X248575Y-452003D01*
G01X110988Y-309456D02*
G01X30988Y-309456D01*
G01X5Y-340439D02*
G01X5Y-420436D01*
G01X110988Y-451416D02*
G01X30988Y-451416D01*
G01X0Y-340439D02*
G02X30983Y-309456I30983J0D01*
G01X30983Y-451421D02*
G02X0Y-420436I0J30983D01*
G01X248569Y-310037D02*
G02X279552Y-341023I0J-30983D01*
G01X279552Y-421020D02*
G02X248569Y-452003I-30983J0D01*
G01X684291Y-341023D02*
G01X684291Y-421025D01*
G01X573316Y-310037D02*
G01X653313Y-310037D01*
G01X573316Y-452003D02*
G01X653313Y-452003D01*
G01X515727Y-309456D02*
G01X435727Y-309456D01*
G01X404744Y-340439D02*
G01X404744Y-420436D01*
G01X515727Y-451416D02*
G01X435727Y-451416D01*
G01X404739Y-340439D02*
G02X435722Y-309456I30983J0D01*
G01X435722Y-451421D02*
G02X404739Y-420436I0J30983D01*
G01X653308Y-310037D02*
G02X684291Y-341023I0J-30983D01*
G01X684291Y-421020D02*
G02X653308Y-452003I-30983J0D01*
G54D10*
G01X-660141Y379621D02*
G01X-355859Y379621D01*
G01X-355859Y379621D02*
G01X-356844Y-635000D01*
G01X-666112Y-635000D02*
G01X-660141Y379621D01*
G01X-356844Y-635000D02*
G01X-666112Y-635000D01*
G54D12*
G01X-1146302Y793226D02*
G01X-1147318Y793226D01*
G01X-1147318Y793226D02*
G01X-1180338Y826246D01*
G01X-1146302Y861044D02*
G01X-1146302Y860028D01*
G01X-1146302Y860028D02*
G01X-1180338Y826246D01*
G01X-1146302Y861044D02*
G01X-1146302Y793226D01*
G01X-1144270Y901176D02*
G01X-1029462Y901176D01*
G01X-1144270Y751062D02*
G01X-1029462Y751062D01*
G01X-1029462Y901176D02*
G01X-1029462Y753094D01*
G01X-1182370Y750808D02*
G01X-1287272Y750808D01*
G01X-1317244Y790940D02*
G01X-1317244Y780780D01*
G01X-1317244Y780780D02*
G01X-1287272Y750808D01*
G01X-1317244Y860790D02*
G01X-1317244Y790940D01*
G01X-1317244Y860790D02*
G01X-1317244Y870950D01*
G01X-1317244Y870950D02*
G01X-1287272Y900922D01*
G01X-1182370Y900922D02*
G01X-1287272Y900922D01*
G01X-1146302Y826246D02*
G01X-1180338Y826246D01*
G01X-1400068Y-44958D02*
G01X-1401084Y-44958D01*
G01X-1401084Y-44958D02*
G01X-1434104Y-11938D01*
G01X-1400068Y22860D02*
G01X-1400068Y21844D01*
G01X-1400068Y21844D02*
G01X-1434104Y-11938D01*
G01X-1400068Y22860D02*
G01X-1400068Y-44958D01*
G01X-1398036Y62992D02*
G01X-1283228Y62992D01*
G01X-1398036Y-87122D02*
G01X-1283228Y-87122D01*
G01X-1283228Y62992D02*
G01X-1283228Y-85090D01*
G01X-1436136Y-87376D02*
G01X-1541038Y-87376D01*
G01X-1571010Y-47244D02*
G01X-1571010Y-57404D01*
G01X-1571010Y-57404D02*
G01X-1541038Y-87376D01*
G01X-1571010Y22606D02*
G01X-1571010Y-47244D01*
G01X-1571010Y22606D02*
G01X-1571010Y32766D01*
G01X-1571010Y32766D02*
G01X-1541038Y62738D01*
G01X-1436136Y62738D02*
G01X-1541038Y62738D01*
G01X-1400068Y-11938D02*
G01X-1434104Y-11938D01*
G01X349118Y-1337517D02*
G01X350134Y-1337517D01*
G01X350134Y-1337517D02*
G01X383154Y-1370537D01*
G01X349118Y-1405335D02*
G01X349118Y-1404319D01*
G01X349118Y-1404319D02*
G01X383154Y-1370537D01*
G01X349118Y-1405335D02*
G01X349118Y-1337517D01*
G01X347086Y-1445467D02*
G01X232278Y-1445467D01*
G01X347086Y-1295353D02*
G01X232278Y-1295353D01*
G01X232278Y-1445467D02*
G01X232278Y-1297385D01*
G01X385186Y-1295099D02*
G01X490088Y-1295099D01*
G01X520060Y-1335231D02*
G01X520060Y-1325071D01*
G01X520060Y-1325071D02*
G01X490088Y-1295099D01*
G01X520060Y-1405081D02*
G01X520060Y-1335231D01*
G01X520060Y-1405081D02*
G01X520060Y-1415241D01*
G01X520060Y-1415241D02*
G01X490088Y-1445213D01*
G01X385186Y-1445213D02*
G01X490088Y-1445213D01*
G01X349118Y-1370537D02*
G01X383154Y-1370537D01*
G01X1457198Y-20353D02*
G01X1456182Y-20353D01*
G01X1456182Y-20353D02*
G01X1423162Y12667D01*
G01X1457198Y47465D02*
G01X1457198Y46449D01*
G01X1457198Y46449D02*
G01X1423162Y12667D01*
G01X1457198Y47465D02*
G01X1457198Y-20353D01*
G01X1459230Y87597D02*
G01X1574038Y87597D01*
G01X1459230Y-62517D02*
G01X1574038Y-62517D01*
G01X1574038Y87597D02*
G01X1574038Y-60485D01*
G01X1421130Y-62771D02*
G01X1316228Y-62771D01*
G01X1286256Y-22639D02*
G01X1286256Y-32799D01*
G01X1286256Y-32799D02*
G01X1316228Y-62771D01*
G01X1286256Y47211D02*
G01X1286256Y-22639D01*
G01X1286256Y47211D02*
G01X1286256Y57371D01*
G01X1286256Y57371D02*
G01X1316228Y87343D01*
G01X1421130Y87343D02*
G01X1316228Y87343D01*
G01X1457198Y12667D02*
G01X1423162Y12667D01*
G01X-1110000Y-883158D02*
G01X-1111016Y-883158D01*
G01X-1111016Y-883158D02*
G01X-1144036Y-850138D01*
G01X-1110000Y-815340D02*
G01X-1110000Y-816356D01*
G01X-1110000Y-816356D02*
G01X-1144036Y-850138D01*
G01X-1110000Y-815340D02*
G01X-1110000Y-883158D01*
G01X-1107968Y-775208D02*
G01X-993160Y-775208D01*
G01X-1107968Y-925322D02*
G01X-993160Y-925322D01*
G01X-993160Y-775208D02*
G01X-993160Y-923290D01*
G01X-1146068Y-925576D02*
G01X-1250970Y-925576D01*
G01X-1280942Y-885444D02*
G01X-1280942Y-895604D01*
G01X-1280942Y-895604D02*
G01X-1250970Y-925576D01*
G01X-1280942Y-815594D02*
G01X-1280942Y-885444D01*
G01X-1280942Y-815594D02*
G01X-1280942Y-805434D01*
G01X-1280942Y-805434D02*
G01X-1250970Y-775462D01*
G01X-1146068Y-775462D02*
G01X-1250970Y-775462D01*
G01X-1110000Y-850138D02*
G01X-1144036Y-850138D01*
G01X-397002Y-1378458D02*
G01X-398018Y-1378458D01*
G01X-398018Y-1378458D02*
G01X-431038Y-1345438D01*
G01X-397002Y-1310640D02*
G01X-397002Y-1311656D01*
G01X-397002Y-1311656D02*
G01X-431038Y-1345438D01*
G01X-397002Y-1310640D02*
G01X-397002Y-1378458D01*
G01X-394970Y-1270508D02*
G01X-280162Y-1270508D01*
G01X-394970Y-1420622D02*
G01X-280162Y-1420622D01*
G01X-280162Y-1270508D02*
G01X-280162Y-1418590D01*
G01X-433070Y-1420876D02*
G01X-537972Y-1420876D01*
G01X-567944Y-1380744D02*
G01X-567944Y-1390904D01*
G01X-567944Y-1390904D02*
G01X-537972Y-1420876D01*
G01X-567944Y-1310894D02*
G01X-567944Y-1380744D01*
G01X-567944Y-1310894D02*
G01X-567944Y-1300734D01*
G01X-567944Y-1300734D02*
G01X-537972Y-1270762D01*
G01X-433070Y-1270762D02*
G01X-537972Y-1270762D01*
G01X-397002Y-1345438D02*
G01X-431038Y-1345438D01*
G01X1165098Y-858758D02*
G01X1164082Y-858758D01*
G01X1164082Y-858758D02*
G01X1131062Y-825738D01*
G01X1165098Y-790940D02*
G01X1165098Y-791956D01*
G01X1165098Y-791956D02*
G01X1131062Y-825738D01*
G01X1165098Y-790940D02*
G01X1165098Y-858758D01*
G01X1167130Y-750808D02*
G01X1281938Y-750808D01*
G01X1167130Y-900922D02*
G01X1281938Y-900922D01*
G01X1281938Y-750808D02*
G01X1281938Y-898890D01*
G01X1129030Y-901176D02*
G01X1024128Y-901176D01*
G01X994156Y-861044D02*
G01X994156Y-871204D01*
G01X994156Y-871204D02*
G01X1024128Y-901176D01*
G01X994156Y-791194D02*
G01X994156Y-861044D01*
G01X994156Y-791194D02*
G01X994156Y-781034D01*
G01X994156Y-781034D02*
G01X1024128Y-751062D01*
G01X1129030Y-751062D02*
G01X1024128Y-751062D01*
G01X1165098Y-825738D02*
G01X1131062Y-825738D01*
G01X1167130Y818642D02*
G01X1166114Y818642D01*
G01X1166114Y818642D02*
G01X1133094Y851662D01*
G01X1167130Y886460D02*
G01X1167130Y885444D01*
G01X1167130Y885444D02*
G01X1133094Y851662D01*
G01X1167130Y886460D02*
G01X1167130Y818642D01*
G01X1169162Y926592D02*
G01X1283970Y926592D01*
G01X1169162Y776478D02*
G01X1283970Y776478D01*
G01X1283970Y926592D02*
G01X1283970Y778510D01*
G01X1131062Y776224D02*
G01X1026160Y776224D01*
G01X996188Y816356D02*
G01X996188Y806196D01*
G01X996188Y806196D02*
G01X1026160Y776224D01*
G01X996188Y886206D02*
G01X996188Y816356D01*
G01X996188Y886206D02*
G01X996188Y896366D01*
G01X996188Y896366D02*
G01X1026160Y926338D01*
G01X1131062Y926338D02*
G01X1026160Y926338D01*
G01X1167130Y851662D02*
G01X1133094Y851662D01*
G01X454775Y1323801D02*
G01X453759Y1323801D01*
G01X453759Y1323801D02*
G01X420739Y1356821D01*
G01X454775Y1391619D02*
G01X454775Y1390603D01*
G01X454775Y1390603D02*
G01X420739Y1356821D01*
G01X454775Y1391619D02*
G01X454775Y1323801D01*
G01X456807Y1431751D02*
G01X571615Y1431751D01*
G01X456807Y1281637D02*
G01X571615Y1281637D01*
G01X571615Y1431751D02*
G01X571615Y1283669D01*
G01X418707Y1281383D02*
G01X313805Y1281383D01*
G01X283833Y1321515D02*
G01X283833Y1311355D01*
G01X283833Y1311355D02*
G01X313805Y1281383D01*
G01X283833Y1391365D02*
G01X283833Y1321515D01*
G01X283833Y1391365D02*
G01X283833Y1401525D01*
G01X283833Y1401525D02*
G01X313805Y1431497D01*
G01X418707Y1431497D02*
G01X313805Y1431497D01*
G01X454775Y1356821D02*
G01X420739Y1356821D01*
G01X-409306Y1313942D02*
G01X-410322Y1313942D01*
G01X-410322Y1313942D02*
G01X-443342Y1346962D01*
G01X-409306Y1381760D02*
G01X-409306Y1380744D01*
G01X-409306Y1380744D02*
G01X-443342Y1346962D01*
G01X-409306Y1381760D02*
G01X-409306Y1313942D01*
G01X-407274Y1421892D02*
G01X-292466Y1421892D01*
G01X-407274Y1271778D02*
G01X-292466Y1271778D01*
G01X-292466Y1421892D02*
G01X-292466Y1273810D01*
G01X-445374Y1271524D02*
G01X-550276Y1271524D01*
G01X-580248Y1311656D02*
G01X-580248Y1301496D01*
G01X-580248Y1301496D02*
G01X-550276Y1271524D01*
G01X-580248Y1381506D02*
G01X-580248Y1311656D01*
G01X-580248Y1381506D02*
G01X-580248Y1391666D01*
G01X-580248Y1391666D02*
G01X-550276Y1421638D01*
G01X-445374Y1421638D02*
G01X-550276Y1421638D01*
G01X-409306Y1346962D02*
G01X-443342Y1346962D01*

G04 Rect Start*
G54D11*
G01X-385176Y534162D02*
G01X-385176Y813054D01*
G01X190896Y813054D01*
G01X190896Y534162D01*
G01X-385176Y534162D01*
G04 Rect End*

G04 Circle Start*
G54D13*
G01X225577Y317500D02*
G03X255600Y317500I15011J0D01*
G03X225577Y317500I-15011J0D01*
G01X25248Y392151D02*
G03X55270Y392151I15011J0D01*
G03X25248Y392151I-15011J0D01*
G01X-800252Y392151D02*
G03X-770230Y392151I15011J0D01*
G03X-800252Y392151I-15011J0D01*
G01X-599923Y317500D02*
G03X-569900Y317500I15011J0D01*
G03X-599923Y317500I-15011J0D01*
G04 Circle End*

M02*

